<svg width="42" height="27" viewBox="0 0 42 27" fill="none" xmlns="http://www.w3.org/2000/svg">
<path d="M21 6C20.4696 6 19.9609 6.21071 19.5858 6.58579C19.2107 6.96086 19 7.46957 19 8C19 8.53043 19.2107 9.03914 19.5858 9.41421C19.9609 9.78929 20.4696 10 21 10C21.5305 10 22.0392 9.78929 22.4142 9.41421C22.7893 9.03914 23 8.53043 23 8C23 7.46957 22.7893 6.96086 22.4142 6.58579C22.0392 6.21071 21.5305 6 21 6ZM21 11.3333C20.116 11.3333 19.2681 10.9821 18.643 10.357C18.0179 9.7319 17.6667 8.88406 17.6667 8C17.6667 7.11595 18.0179 6.2681 18.643 5.64298C19.2681 5.01786 20.116 4.66667 21 4.66667C21.8841 4.66667 22.7319 5.01786 23.357 5.64298C23.9822 6.2681 24.3334 7.11595 24.3334 8C24.3334 8.88406 23.9822 9.7319 23.357 10.357C22.7319 10.9821 21.8841 11.3333 21 11.3333ZM21 3C17.6667 3 14.82 5.07333 13.6667 8C14.82 10.9267 17.6667 13 21 13C24.3334 13 27.18 10.9267 28.3334 8C27.18 5.07333 24.3334 3 21 3Z" fill="#1DCB9D"/>
<path d="M4.84737 19.096H3.19937V18.312H2.13537V19.096H0.503374V19.92H4.83937L4.84737 19.096ZM1.87137 21.6C1.87137 21.2 2.19937 20.984 2.67137 20.984C3.13537 20.984 3.47137 21.2 3.47137 21.6C3.47137 22.008 3.13537 22.224 2.67137 22.224C2.19937 22.224 1.87137 22.008 1.87137 21.6ZM4.47937 21.6C4.47937 20.768 3.72737 20.184 2.67137 20.184C1.61537 20.184 0.863374 20.768 0.863374 21.6C0.863374 22.448 1.61537 23.024 2.67137 23.024C3.72737 23.024 4.47937 22.448 4.47937 21.6ZM2.60737 23.424H1.55137V25.56H6.56737V24.72H2.60737V23.424ZM6.30337 20.568V18.32H5.24737V23.832H6.30337V21.44H7.27937V20.568H6.30337ZM16.0909 20.304H12.0669V18.52H11.0109V21.136H16.0909V20.304ZM11.9949 23.344H10.9389V25.56H16.1389V24.728H11.9949V23.344ZM10.1629 21.776V22.616H13.0509V23.904H14.1069V22.616H16.8349V21.776H10.1629ZM19.3203 23.2C18.9203 23.2 18.6803 22.648 18.6803 21.512C18.6803 20.384 18.9203 19.832 19.3203 19.832C19.7283 19.832 19.9603 20.384 19.9603 21.512C19.9603 22.648 19.7283 23.2 19.3203 23.2ZM21.4883 21.032H20.9043C20.7843 19.656 20.1923 18.84 19.3203 18.84C18.3443 18.84 17.7283 19.848 17.7283 21.512C17.7283 23.184 18.3443 24.192 19.3203 24.192C20.2163 24.192 20.8163 23.328 20.9123 21.888H21.4883V25.36H22.4723V18.44H21.4883V21.032ZM22.9843 18.312V25.68H23.9843V18.312H22.9843ZM29.0679 20.752H32.2199V21.784H29.0679V20.752ZM31.1719 23.976V22.624H33.2599V18.776H32.2199V19.92H29.0679V18.776H28.0199V22.624H30.1159V23.976H27.3159V24.832H33.9879V23.976H31.1719ZM35.2333 19.08V19.92H37.6893C37.5373 21.552 36.7213 22.704 34.8413 23.608L35.3933 24.44C38.0093 23.176 38.7693 21.336 38.7693 19.08H35.2333ZM39.8973 18.312V25.68H40.9613V18.312H39.8973Z" fill="#1DCB9D"/>
</svg>
