<svg width="34" height="27" viewBox="0 0 34 27" fill="none" xmlns="http://www.w3.org/2000/svg">
<path d="M11 4H23V12H11V4ZM17 6C17.5304 6 18.0391 6.21071 18.4142 6.58579C18.7893 6.96086 19 7.46957 19 8C19 8.53043 18.7893 9.03914 18.4142 9.41421C18.0391 9.78929 17.5304 10 17 10C16.4696 10 15.9609 9.78929 15.5858 9.41421C15.2107 9.03914 15 8.53043 15 8C15 7.46957 15.2107 6.96086 15.5858 6.58579C15.9609 6.21071 16.4696 6 17 6ZM13.6667 5.33333C13.6667 5.68696 13.5262 6.02609 13.2761 6.27614C13.0261 6.52619 12.687 6.66667 12.3333 6.66667V9.33333C12.687 9.33333 13.0261 9.47381 13.2761 9.72386C13.5262 9.97391 13.6667 10.313 13.6667 10.6667H20.3333C20.3333 10.313 20.4738 9.97391 20.7239 9.72386C20.9739 9.47381 21.313 9.33333 21.6667 9.33333V6.66667C21.313 6.66667 20.9739 6.52619 20.7239 6.27614C20.4738 6.02609 20.3333 5.68696 20.3333 5.33333H13.6667Z" fill="#1DCB9D"/>
<path d="M6.38516 18.296V25.728H7.45716V18.296H6.38516ZM1.67316 18.888V24H5.31316V18.888H4.25716V20.688H2.72916V18.888H1.67316ZM2.72916 21.512H4.25716V23.144H2.72916V21.512ZM10.3185 20.784V22.144H11.3825V20.784H10.3185ZM12.9265 20.784V22.144H13.9825V20.784H12.9265ZM8.81453 21.816V22.656H15.5105V21.816H8.81453ZM12.1505 23.032C10.5425 23.032 9.57453 23.512 9.57453 24.368C9.57453 25.232 10.5425 25.712 12.1505 25.712C13.7505 25.712 14.7185 25.232 14.7185 24.368C14.7185 23.512 13.7505 23.032 12.1505 23.032ZM12.1505 23.832C13.1425 23.832 13.6465 24 13.6465 24.368C13.6465 24.744 13.1425 24.912 12.1505 24.912C11.1585 24.912 10.6545 24.744 10.6545 24.368C10.6545 24 11.1585 23.832 12.1505 23.832ZM12.1665 18.408C10.5265 18.408 9.48653 18.952 9.48653 19.84C9.48653 20.72 10.5265 21.248 12.1665 21.248C13.7985 21.248 14.8465 20.72 14.8465 19.84C14.8465 18.952 13.7985 18.408 12.1665 18.408ZM12.1665 19.224C13.1825 19.224 13.7505 19.424 13.7505 19.84C13.7505 20.248 13.1825 20.448 12.1665 20.448C11.1505 20.448 10.5825 20.248 10.5825 19.84C10.5825 19.424 11.1505 19.224 12.1665 19.224ZM18.7941 18.84V19.696H21.9621V18.84H18.7941ZM19.7061 20.568V22.424H20.7621V20.568H19.7061ZM21.5461 18.84V19.304C21.5461 19.816 21.5461 20.456 21.3861 21.368L22.4181 21.48C22.5941 20.56 22.5941 19.824 22.5941 19.304V18.84H21.5461ZM23.3141 18.304V23.848H24.3861V18.304H23.3141ZM23.9621 20.56V21.432H25.2661V20.56H23.9621ZM19.4421 24.736V25.584H24.6181V24.736H19.4421ZM19.4421 23.352V25H20.5061V23.352H19.4421ZM18.4581 22.856C19.7301 22.856 21.4501 22.824 22.9781 22.536L22.9141 21.784C21.4261 21.992 19.6421 22.016 18.3621 22.016L18.4581 22.856ZM31.0795 18.296V25.728H32.1435V18.296H31.0795ZM26.3755 23.136V24H27.0315C28.3835 24 29.4715 23.96 30.6715 23.744L30.5675 22.888C29.3915 23.088 28.3435 23.136 27.0315 23.136H26.3755ZM26.3675 18.928V19.776H28.7755V20.952H26.3755V23.456H27.4555V21.792H29.8635V18.928H26.3675Z" fill="#1DCB9D"/>
</svg>
