<svg width="50" height="27" viewBox="0 0 50 27" fill="none" xmlns="http://www.w3.org/2000/svg">
<path d="M24.3333 5.33333C24.3333 6.80667 23.14 8 21.6667 8C20.1933 8 19 6.80667 19 5.33333C19 3.86 20.1933 2.66667 21.6667 2.66667C23.14 2.66667 24.3333 3.86 24.3333 5.33333ZM24.3333 9.81333V13.3333H17V12C17 10.5267 19.0867 9.33333 21.6667 9.33333C22.6667 9.33333 23.58 9.51333 24.3333 9.81333ZM33 13.3333H25.6667V2H33V13.3333ZM27.6667 7.66667C27.6667 6.74667 28.4133 6 29.3333 6C30.2533 6 31 6.74667 31 7.66667C31 8.58667 30.2533 9.33333 29.3333 9.33333C28.4133 9.33333 27.6667 8.58667 27.6667 7.66667ZM31.6667 4.66667C30.9333 4.66667 30.3333 4.07333 30.3333 3.33333H28.3333C28.3333 4.07333 27.74 4.66667 27 4.66667V10.6667C27.74 10.6667 28.3333 11.2667 28.3333 12H30.3333C30.3333 11.2667 30.9333 10.6667 31.6667 10.6667V4.66667Z" fill="#C7C8C8"/>
<path d="M4.60469 23.992V22.456H6.70869V21.608H2.58869V19.672H6.65269V18.824H1.52469V22.456H3.54869V23.992H0.748688V24.856H7.42069V23.992H4.60469ZM12.6661 21.816C11.4741 21.432 10.9781 20.504 10.9781 19.568V18.768H9.90606V19.56C9.90606 20.568 9.38606 21.552 8.14606 21.952L8.70606 22.776C9.54606 22.496 10.1301 21.92 10.4581 21.184C10.7781 21.848 11.3221 22.376 12.1221 22.64L12.6661 21.816ZM10.3701 23.2H9.31406V25.56H14.3141V24.72H10.3701V23.2ZM14.0581 20.456V18.32H13.0021V23.712H14.0581V21.328H15.0341V20.456H14.0581ZM21.2296 19.408C22.1896 19.408 22.8056 19.696 22.8056 20.216C22.8056 20.744 22.1896 21.024 21.2296 21.024C20.2616 21.024 19.6456 20.744 19.6456 20.216C19.6456 19.696 20.2616 19.408 21.2296 19.408ZM21.2296 21.864C22.7976 21.864 23.8936 21.224 23.8936 20.216C23.8936 19.216 22.7976 18.568 21.2296 18.568C19.6536 18.568 18.5656 19.216 18.5656 20.216C18.5656 21.224 19.6536 21.864 21.2296 21.864ZM24.5816 22.416H17.9096V23.272H19.4216V25.68H20.4856V23.272H21.9656V25.68H23.0376V23.272H24.5816V22.416ZM30.523 23.008H31.579V18.32H30.523V19.936H29.579V20.776H30.523V21.408H29.563V22.248H30.523V23.008ZM29.483 18.984H28.043V18.264H26.987V18.984H25.443V19.816H29.483V18.984ZM26.771 21.448C26.771 21.064 27.067 20.856 27.515 20.856C27.955 20.856 28.259 21.064 28.259 21.448C28.259 21.832 27.955 22.04 27.515 22.04C27.067 22.04 26.771 21.832 26.771 21.448ZM29.235 21.448C29.235 20.632 28.523 20.072 27.515 20.072C26.499 20.072 25.787 20.632 25.787 21.448C25.787 22.264 26.499 22.824 27.515 22.824C28.523 22.824 29.235 22.264 29.235 21.448ZM29.091 24.888C28.179 24.888 27.683 24.736 27.683 24.4C27.683 24.056 28.179 23.912 29.091 23.912C29.995 23.912 30.499 24.056 30.499 24.4C30.499 24.736 29.995 24.888 29.091 24.888ZM29.091 23.104C27.539 23.104 26.563 23.584 26.563 24.4C26.563 25.208 27.539 25.688 29.091 25.688C30.643 25.688 31.611 25.208 31.611 24.4C31.611 23.584 30.643 23.104 29.091 23.104ZM41.0386 21.328H36.9426V20.776H40.8066V19.976H36.9426V19.44H40.9666V18.608H35.8946V22.16H41.0386V21.328ZM41.7346 22.688H35.0626V23.544H37.8626V25.696H38.9186V23.544H41.7346V22.688ZM45.2839 19.896H46.7479V19.024H42.6999V19.896H44.2279V20.304C44.2279 21.52 43.6279 22.904 42.4199 23.464L43.0119 24.304C43.8519 23.904 44.4439 23.096 44.7719 22.136C45.0999 23.008 45.6759 23.744 46.4919 24.12L47.0759 23.288C45.8679 22.728 45.2839 21.424 45.2839 20.304V19.896ZM49.4199 21.128H48.3479V18.32H47.2919V25.688H48.3479V22H49.4199V21.128Z" fill="#C7C8C8"/>
</svg>
