<svg width="42" height="27" viewBox="0 0 42 27" fill="none" xmlns="http://www.w3.org/2000/svg">
<path d="M21 6C20.4696 6 19.9608 6.21071 19.5858 6.58579C19.2107 6.96086 19 7.46957 19 8C19 8.53043 19.2107 9.03914 19.5858 9.41421C19.9608 9.78929 20.4696 10 21 10C21.5304 10 22.0391 9.78929 22.4142 9.41421C22.7893 9.03914 23 8.53043 23 8C23 7.46957 22.7893 6.96086 22.4142 6.58579C22.0391 6.21071 21.5304 6 21 6ZM21 11.3333C20.1159 11.3333 19.2681 10.9821 18.643 10.357C18.0178 9.7319 17.6667 8.88406 17.6667 8C17.6667 7.11595 18.0178 6.2681 18.643 5.64298C19.2681 5.01786 20.1159 4.66667 21 4.66667C21.884 4.66667 22.7319 5.01786 23.357 5.64298C23.9821 6.2681 24.3333 7.11595 24.3333 8C24.3333 8.88406 23.9821 9.7319 23.357 10.357C22.7319 10.9821 21.884 11.3333 21 11.3333ZM21 3C17.6667 3 14.82 5.07333 13.6667 8C14.82 10.9267 17.6667 13 21 13C24.3333 13 27.18 10.9267 28.3333 8C27.18 5.07333 24.3333 3 21 3Z" fill="#C7C8C8"/>
<path d="M5.24737 18.312V23.848H6.31137V18.312H5.24737ZM6.00737 20.568V21.44H7.29537V20.568H6.00737ZM0.479374 19.08V19.912H4.83937V19.08H0.479374ZM2.66337 20.176C1.59137 20.176 0.839374 20.76 0.839374 21.608C0.839374 22.456 1.59137 23.032 2.66337 23.032C3.72737 23.032 4.47937 22.456 4.47937 21.608C4.47937 20.76 3.72737 20.176 2.66337 20.176ZM2.66337 20.984C3.13537 20.984 3.46337 21.208 3.46337 21.608C3.46337 22.008 3.13537 22.224 2.66337 22.224C2.19137 22.224 1.86337 22.008 1.86337 21.608C1.86337 21.208 2.19137 20.984 2.66337 20.984ZM2.12737 18.296V19.488H3.19137V18.296H2.12737ZM1.53537 24.736V25.584H6.57537V24.736H1.53537ZM1.53537 23.432V25.104H2.59937V23.432H1.53537ZM10.9869 20.296V21.128H16.1069V20.296H10.9869ZM10.9869 18.504V20.616H12.0509V18.504H10.9869ZM10.1389 21.776V22.616H16.8429V21.776H10.1389ZM13.0429 22.368V23.912H14.1069V22.368H13.0429ZM10.9229 24.736V25.584H16.1469V24.736H10.9229ZM10.9229 23.352V25.192H11.9789V23.352H10.9229ZM20.6003 21.032V21.888H21.8163V21.032H20.6003ZM22.9923 18.304V25.712H24.0083V18.304H22.9923ZM21.4803 18.416V25.376H22.4803V18.416H21.4803ZM19.3043 18.824C18.3283 18.824 17.7043 19.84 17.7043 21.512C17.7043 23.192 18.3283 24.208 19.3043 24.208C20.2883 24.208 20.9203 23.192 20.9203 21.512C20.9203 19.84 20.2883 18.824 19.3043 18.824ZM19.3043 19.824C19.7203 19.824 19.9523 20.384 19.9523 21.512C19.9523 22.648 19.7203 23.2 19.3043 23.2C18.9043 23.2 18.6723 22.648 18.6723 21.512C18.6723 20.384 18.9043 19.824 19.3043 19.824ZM27.2999 23.992V24.856H34.0039V23.992H27.2999ZM30.1079 22.408V24.2H31.1719V22.408H30.1079ZM28.0039 18.776V22.632H33.2759V18.776H32.2199V19.912H29.0599V18.776H28.0039ZM29.0599 20.744H32.2199V21.784H29.0599V20.744ZM39.9053 18.304V25.712H40.9773V18.304H39.9053ZM37.7213 19.072V19.264C37.7213 21.248 36.9533 22.592 34.8253 23.616L35.3773 24.464C38.0093 23.192 38.7773 21.336 38.7773 19.072H37.7213ZM35.2173 19.072V19.912H38.2253V19.072H35.2173Z" fill="#C7C8C8"/>
</svg>
