<svg width="34" height="27" viewBox="0 0 34 27" fill="none" xmlns="http://www.w3.org/2000/svg">
<path d="M11 4H23V12H11V4ZM17 6C17.5304 6 18.0391 6.21071 18.4142 6.58579C18.7893 6.96086 19 7.46957 19 8C19 8.53043 18.7893 9.03914 18.4142 9.41421C18.0391 9.78929 17.5304 10 17 10C16.4696 10 15.9609 9.78929 15.5858 9.41421C15.2107 9.03914 15 8.53043 15 8C15 7.46957 15.2107 6.96086 15.5858 6.58579C15.9609 6.21071 16.4696 6 17 6ZM13.6667 5.33333C13.6667 5.68696 13.5262 6.02609 13.2761 6.27614C13.0261 6.52619 12.687 6.66667 12.3333 6.66667V9.33333C12.687 9.33333 13.0261 9.47381 13.2761 9.72386C13.5262 9.97391 13.6667 10.313 13.6667 10.6667H20.3333C20.3333 10.313 20.4738 9.97391 20.7239 9.72386C20.9739 9.47381 21.313 9.33333 21.6667 9.33333V6.66667C21.313 6.66667 20.9739 6.52619 20.7239 6.27614C20.4738 6.02609 20.3333 5.68696 20.3333 5.33333H13.6667Z" fill="#C7C8C8"/>
<path d="M6.37716 18.312V25.704H7.43316V18.312H6.37716ZM1.68916 18.904V23.984H5.32116V18.904H4.27316V20.688H2.73716V18.904H1.68916ZM2.73716 21.512H4.27316V23.144H2.73716V21.512ZM12.1505 24.896C11.1665 24.896 10.6625 24.728 10.6625 24.352C10.6625 23.976 11.1665 23.816 12.1505 23.816C13.1345 23.816 13.6385 23.976 13.6385 24.352C13.6385 24.728 13.1345 24.896 12.1505 24.896ZM12.1505 23.016C10.5585 23.016 9.59853 23.496 9.59853 24.352C9.59853 25.208 10.5585 25.696 12.1505 25.696C13.7425 25.696 14.7105 25.208 14.7105 24.352C14.7105 23.496 13.7425 23.016 12.1505 23.016ZM11.3905 21.2C11.6305 21.232 11.8865 21.248 12.1665 21.248C12.4385 21.248 12.6945 21.232 12.9265 21.208V21.816H11.3905V21.2ZM12.1665 19.232C13.1745 19.232 13.7505 19.432 13.7505 19.848C13.7505 20.248 13.1745 20.456 12.1665 20.456C11.1665 20.456 10.5905 20.248 10.5905 19.848C10.5905 19.432 11.1665 19.232 12.1665 19.232ZM13.9825 21.816V20.936C14.5265 20.696 14.8385 20.328 14.8385 19.848C14.8385 18.968 13.7985 18.432 12.1665 18.432C10.5425 18.432 9.50253 18.968 9.50253 19.848C9.50253 20.32 9.80653 20.688 10.3345 20.928V21.816H8.83853V22.648H15.4945V21.816H13.9825ZM22.4261 21.48C22.5941 20.552 22.5941 19.824 22.5941 19.312V18.856H18.8101V19.696H21.5541C21.5461 20.136 21.5141 20.672 21.3941 21.36L22.4261 21.48ZM22.9141 21.776C22.2261 21.872 21.4901 21.928 20.7621 21.96V20.568H19.7301V22C19.2501 22.008 18.7941 22.008 18.3861 22.008L18.4821 22.848C19.7461 22.84 21.4581 22.808 22.9781 22.528L22.9141 21.776ZM20.5141 23.344H19.4581V25.56H24.6021V24.72H20.5141V23.344ZM24.3701 20.56V18.312H23.3141V23.832H24.3701V21.432H25.2501V20.56H24.3701ZM27.4715 21.792H29.8635V18.944H26.3835V19.784H28.7835V20.96H26.3915V23.992H27.0555C28.3915 23.992 29.4715 23.944 30.6715 23.736L30.5595 22.88C29.5195 23.056 28.5915 23.112 27.4715 23.12V21.792ZM31.0715 18.312V25.704H32.1275V18.312H31.0715Z" fill="#C7C8C8"/>
</svg>
