<svg width="111" height="132" viewBox="0 0 111 132" fill="none" xmlns="http://www.w3.org/2000/svg">
<g filter="url(#filter0_d_77_75)">
<rect x="6" y="6" width="99" height="120" rx="8" fill="#FBAE29"/>
</g>
<rect x="14" y="16" width="36" height="36" rx="6" fill="white" fill-opacity="0.2"/>
<path d="M23 28H41V40H23V28ZM32 31C32.7956 31 33.5587 31.3161 34.1213 31.8787C34.6839 32.4413 35 33.2044 35 34C35 34.7956 34.6839 35.5587 34.1213 36.1213C33.5587 36.6839 32.7956 37 32 37C31.2044 37 30.4413 36.6839 29.8787 36.1213C29.3161 35.5587 29 34.7956 29 34C29 33.2044 29.3161 32.4413 29.8787 31.8787C30.4413 31.3161 31.2044 31 32 31ZM27 30C27 30.5304 26.7893 31.0391 26.4142 31.4142C26.0391 31.7893 25.5304 32 25 32V36C25.5304 36 26.0391 36.2107 26.4142 36.5858C26.7893 36.9609 27 37.4696 27 38H37C37 37.4696 37.2107 36.9609 37.5858 36.5858C37.9609 36.2107 38.4696 36 39 36V32C38.4696 32 37.9609 31.7893 37.5858 31.4142C37.2107 31.0391 37 30.5304 37 30H27Z" fill="white"/>
<path d="M16.925 86.229V89.609H18.641V86.229H16.925ZM21.293 86.229V89.609H23.022V86.229H21.293ZM14.533 89.362V90.766H25.427V89.362H14.533ZM19.967 80.704C17.367 80.704 15.469 81.978 15.469 83.941C15.469 85.904 17.367 87.165 19.967 87.165C22.554 87.165 24.465 85.904 24.465 83.941C24.465 81.978 22.554 80.704 19.967 80.704ZM19.967 82.056C21.644 82.056 22.762 82.745 22.762 83.941C22.762 85.124 21.644 85.826 19.967 85.826C18.29 85.826 17.172 85.124 17.172 83.941C17.172 82.745 18.29 82.056 19.967 82.056ZM30.88 81.276V81.575C30.88 82.511 29.723 83.564 27.084 83.798L27.682 85.15C30.789 84.864 32.414 83.382 32.414 81.575V81.276H30.88ZM31.725 81.276V81.575C31.725 83.382 33.363 84.864 36.457 85.15L37.055 83.798C34.403 83.564 33.259 82.511 33.259 81.575V81.276H31.725ZM27.617 80.587V81.952H36.535V80.587H27.617ZM27.89 87.828V92.027H36.21V87.828H27.89ZM34.52 89.193V90.662H29.593V89.193H34.52ZM26.629 85.579V86.944H37.51V85.579H26.629ZM47.8843 85.709V87.087H52.2393V85.709H47.8843ZM42.1253 89.271V90.688H53.0193V89.271H42.1253ZM47.8843 81.263V86.112H49.6133V82.628H52.1873V81.263H47.8843ZM43.0223 81.263V86.008H44.7513V82.641H47.2993V81.263H43.0223ZM43.0223 85.709V87.087H43.7763C45.2323 87.087 46.2593 87.061 47.4683 86.827L47.3383 85.436C46.1683 85.67 45.1803 85.709 43.7763 85.709H43.0223ZM55.5863 83.369V84.734H63.9323V83.369H55.5863ZM54.2343 85.982V87.36H65.1413V85.982H54.2343ZM55.5863 80.548V84.045H57.3023V80.548H55.5863ZM55.4693 90.519V91.897H63.9973V90.519H55.4693ZM55.4693 88.322V90.883H57.1983V88.322H55.4693ZM14.52 107.256V108.66H25.414V107.256H14.52ZM19.096 107.75V112.17H20.812V107.75H19.096ZM15.872 105.02V106.385H24.283V105.02H15.872ZM15.872 100.6V105.345H17.575V101.952H24.153V100.6H15.872ZM17.094 102.823V104.136H23.893V102.823H17.094ZM29.333 102.017V103.369C29.333 105.345 28.358 107.594 26.369 108.53L27.344 109.895C29.554 108.855 30.698 106.086 30.698 103.369V102.017H29.333ZM29.697 102.017V103.369C29.697 105.93 30.815 108.569 33.025 109.596L33.974 108.231C31.998 107.321 31.062 105.189 31.062 103.369V102.017H29.697ZM26.837 101.276V102.693H33.441V101.276H26.837ZM34.325 100.119V112.157H36.067V100.119H34.325ZM35.677 104.708V106.138H37.809V104.708H35.677ZM44.7643 100.769V101.835C44.7643 103.473 43.9453 105.085 41.9303 105.761L42.8533 107.126C45.1413 106.333 46.1813 104.227 46.1813 101.835V100.769H44.7643ZM45.1153 100.769V102.004C45.1153 104.175 46.1423 106.047 48.3133 106.775L49.2103 105.436C47.3253 104.851 46.5193 103.447 46.5193 102.004V100.769H45.1153ZM49.8733 100.119V107.23H51.6023V100.119H49.8733ZM51.1213 102.901V104.331H53.2013V102.901H51.1213ZM47.6763 107.503C45.1673 107.503 43.5943 108.374 43.5943 109.83C43.5943 111.299 45.1673 112.157 47.6763 112.157C50.1723 112.157 51.7453 111.299 51.7453 109.83C51.7453 108.374 50.1723 107.503 47.6763 107.503ZM47.6763 108.842C49.2103 108.842 50.0293 109.167 50.0293 109.83C50.0293 110.506 49.2103 110.818 47.6763 110.818C46.1423 110.818 45.3103 110.506 45.3103 109.83C45.3103 109.167 46.1423 108.842 47.6763 108.842ZM58.8103 106.736V108.569H60.5393V106.736H58.8103ZM54.2343 105.748V107.113H65.1153V105.748H54.2343ZM55.1833 100.444V101.822H64.1533V100.444H55.1833ZM55.2743 103.629V105.007H64.0623V103.629H55.2743ZM56.7173 100.951V104.526H58.4463V100.951H56.7173ZM60.8903 100.951V104.526H62.6193V100.951H60.8903ZM55.4953 108.114V112.027H63.8153V108.114H55.4953ZM62.1253 109.453V110.662H57.1983V109.453H62.1253Z" fill="white"/>
<defs>
<filter id="filter0_d_77_75" x="0" y="0" width="111" height="132" filterUnits="userSpaceOnUse" color-interpolation-filters="sRGB">
<feFlood flood-opacity="0" result="BackgroundImageFix"/>
<feColorMatrix in="SourceAlpha" type="matrix" values="0 0 0 0 0 0 0 0 0 0 0 0 0 0 0 0 0 0 127 0" result="hardAlpha"/>
<feOffset/>
<feGaussianBlur stdDeviation="3"/>
<feComposite in2="hardAlpha" operator="out"/>
<feColorMatrix type="matrix" values="0 0 0 0 0 0 0 0 0 0 0 0 0 0 0 0 0 0 0.1 0"/>
<feBlend mode="normal" in2="BackgroundImageFix" result="effect1_dropShadow_77_75"/>
<feBlend mode="normal" in="SourceGraphic" in2="effect1_dropShadow_77_75" result="shape"/>
</filter>
</defs>
</svg>
