<svg width="111" height="132" viewBox="0 0 111 132" fill="none" xmlns="http://www.w3.org/2000/svg">
<g filter="url(#filter0_d_77_63)">
<rect x="6" y="6" width="99" height="120" rx="8" fill="#4471FB"/>
</g>
<rect x="14" y="16" width="36" height="36" rx="6" fill="white" fill-opacity="0.2"/>
<path d="M31.5 23L22 28V30H41V28M36 32V39H39V32M22 44H41V41H22M30 32V39H33V32M24 32V39H27V32H24Z" fill="white"/>
<path d="M19.304 102.771V104.162H21.306V102.771H19.304ZM19.304 106.489V107.893H21.306V106.489H19.304ZM23.217 100.119V112.157H24.868V100.119H23.217ZM20.812 100.301V111.611H22.424V100.301H20.812ZM17.224 100.964C15.638 100.964 14.624 102.615 14.624 105.332C14.624 108.062 15.638 109.713 17.224 109.713C18.823 109.713 19.85 108.062 19.85 105.332C19.85 102.615 18.823 100.964 17.224 100.964ZM17.224 102.589C17.9 102.589 18.29 103.499 18.29 105.332C18.29 107.178 17.9 108.075 17.224 108.075C16.561 108.075 16.171 107.178 16.171 105.332C16.171 103.499 16.561 102.589 17.224 102.589ZM27.968 100.652V102.03H35.599V100.652H27.968ZM26.642 104.981V106.359H37.536V104.981H26.642ZM34.559 100.652V101.614C34.559 102.641 34.559 103.746 34.182 105.306L35.898 105.332C36.262 103.772 36.262 102.654 36.262 101.614V100.652H34.559ZM27.916 107.62V112.027H36.21V107.62H27.916ZM34.507 108.959V110.662H29.606V108.959H34.507ZM41.377 100.769V101.835C41.377 103.473 40.558 105.085 38.543 105.761L39.466 107.126C41.754 106.333 42.794 104.227 42.794 101.835V100.769H41.377ZM41.728 100.769V102.004C41.728 104.175 42.755 106.047 44.926 106.775L45.823 105.436C43.938 104.851 43.132 103.447 43.132 102.004V100.769H41.728ZM46.486 100.119V107.23H48.215V100.119H46.486ZM47.734 102.901V104.331H49.814V102.901H47.734ZM44.289 107.503C41.78 107.503 40.207 108.374 40.207 109.83C40.207 111.299 41.78 112.157 44.289 112.157C46.785 112.157 48.358 111.299 48.358 109.83C48.358 108.374 46.785 107.503 44.289 107.503ZM44.289 108.842C45.823 108.842 46.642 109.167 46.642 109.83C46.642 110.506 45.823 110.818 44.289 110.818C42.755 110.818 41.923 110.506 41.923 109.83C41.923 109.167 42.755 108.842 44.289 108.842ZM55.423 106.736V108.569H57.152V106.736H55.423ZM50.847 105.748V107.113H61.728V105.748H50.847ZM51.796 100.444V101.822H60.766V100.444H51.796ZM51.887 103.629V105.007H60.675V103.629H51.887ZM53.33 100.951V104.526H55.059V100.951H53.33ZM57.503 100.951V104.526H59.232V100.951H57.503ZM52.108 108.114V112.027H60.428V108.114H52.108ZM58.738 109.453V110.662H53.811V109.453H58.738ZM70.9192 107.828V112.17H72.6352V107.828H70.9192ZM66.3562 107.321V108.725H77.2372V107.321H66.3562ZM70.9062 102.277V102.563C70.9062 103.681 69.6192 105.046 66.9022 105.358L67.5002 106.71C70.6852 106.333 72.4272 104.578 72.4272 102.563V102.277H70.9062ZM71.1272 102.277V102.563C71.1272 104.526 72.8692 106.346 76.0412 106.71L76.6522 105.358C73.9482 105.046 72.6482 103.655 72.6482 102.563V102.277H71.1272ZM67.3312 101.497V102.862H76.2492V101.497H67.3312ZM70.9192 100.145V101.965H72.6352V100.145H70.9192ZM81.1562 102.472V102.94C81.1562 104.396 80.3242 105.852 78.3742 106.463L79.2062 107.815C81.4942 107.1 82.5602 105.137 82.5602 102.94V102.472H81.1562ZM81.4682 102.472V102.94C81.4682 105.046 82.5732 106.944 84.8482 107.62L85.6802 106.268C83.7302 105.683 82.8852 104.292 82.8852 102.94V102.472H81.4682ZM78.7902 101.536V102.888H85.2512V101.536H78.7902ZM81.1562 100.21V102.043H82.8852V100.21H81.1562ZM84.8742 103.616V105.033H87.6692V103.616H84.8742ZM86.7982 100.132V109.037H88.5272V100.132H86.7982ZM80.5842 110.571V111.949H88.8002V110.571H80.5842ZM80.5842 108.296V111.481H82.3132V108.296H80.5842Z" fill="white"/>
<defs>
<filter id="filter0_d_77_63" x="0" y="0" width="111" height="132" filterUnits="userSpaceOnUse" color-interpolation-filters="sRGB">
<feFlood flood-opacity="0" result="BackgroundImageFix"/>
<feColorMatrix in="SourceAlpha" type="matrix" values="0 0 0 0 0 0 0 0 0 0 0 0 0 0 0 0 0 0 127 0" result="hardAlpha"/>
<feOffset/>
<feGaussianBlur stdDeviation="3"/>
<feComposite in2="hardAlpha" operator="out"/>
<feColorMatrix type="matrix" values="0 0 0 0 0 0 0 0 0 0 0 0 0 0 0 0 0 0 0.1 0"/>
<feBlend mode="normal" in2="BackgroundImageFix" result="effect1_dropShadow_77_63"/>
<feBlend mode="normal" in="SourceGraphic" in2="effect1_dropShadow_77_63" result="shape"/>
</filter>
</defs>
</svg>
