<svg width="111" height="132" viewBox="0 0 111 132" fill="none" xmlns="http://www.w3.org/2000/svg">
<g filter="url(#filter0_d_78_105)">
<rect x="6" y="6" width="99" height="120" rx="8" fill="#1DCB9D"/>
</g>
<rect x="14" y="16" width="36" height="36" rx="6" fill="white" fill-opacity="0.2"/>
<path d="M43 32C43 30.89 42.1 30 41 30H34.68L35.64 25.43C35.66 25.33 35.67 25.22 35.67 25.11C35.67 24.7 35.5 24.32 35.23 24.05L34.17 23L27.59 29.58C27.22 29.95 27 30.45 27 31V41C27 41.5304 27.2107 42.0391 27.5858 42.4142C27.9609 42.7893 28.4696 43 29 43H38C38.83 43 39.54 42.5 39.84 41.78L42.86 34.73C42.95 34.5 43 34.26 43 34V32ZM21 43H25V31H21V43Z" fill="white"/>
<path d="M22.762 80.132V92.144H24.478V80.132H22.762ZM18.043 80.977C16.236 80.977 14.897 82.615 14.897 85.241C14.897 87.88 16.236 89.531 18.043 89.531C19.85 89.531 21.189 87.88 21.189 85.241C21.189 82.615 19.85 80.977 18.043 80.977ZM18.043 82.524C18.927 82.524 19.538 83.473 19.538 85.241C19.538 87.022 18.927 87.971 18.043 87.971C17.159 87.971 16.548 87.022 16.548 85.241C16.548 83.473 17.159 82.524 18.043 82.524ZM34.962 88.959H36.678V80.145H34.962V83.018H33.103V84.461H34.962V88.959ZM33.324 85.761C31.894 85.982 30.659 86.034 28.826 86.047V84.773H32.505V80.938H27.11V82.303H30.815V83.486H27.123V87.425H28.111C30.373 87.425 31.829 87.386 33.454 87.126L33.324 85.761ZM30.438 90.545V88.257H28.722V91.91H36.977V90.545H30.438ZM48.5603 85.28C48.8333 83.772 48.8333 82.589 48.8333 81.757V81.016H42.6843V82.381H47.1433C47.1303 83.096 47.0783 83.967 46.8833 85.085L48.5603 85.28ZM49.3533 85.761C48.2353 85.917 47.0393 86.008 45.8563 86.06V83.798H44.1793V86.125C43.3993 86.138 42.6583 86.138 41.9953 86.138L42.1513 87.503C44.2053 87.49 46.9873 87.438 49.4573 86.983L49.3533 85.761ZM45.4533 88.309H43.7373V91.91H52.0963V90.545H45.4533V88.309ZM51.7193 83.785V80.132H50.0033V89.102H51.7193V85.202H53.1493V83.785H51.7193ZM56.6653 85.787H60.5523V81.159H54.8973V82.524H58.7973V84.435H54.9103V89.362H55.9893C58.1603 89.362 59.9153 89.284 61.8653 88.946L61.6833 87.555C59.9933 87.841 58.4853 87.932 56.6653 87.945V85.787ZM62.5153 80.132V92.144H64.2313V80.132H62.5153ZM17.835 107.971C16.964 107.971 16.379 107.022 16.379 105.241C16.379 103.473 16.964 102.524 17.835 102.524C18.719 102.524 19.304 103.473 19.304 105.241C19.304 107.022 18.719 107.971 17.835 107.971ZM22.892 100.132V104.448H20.89C20.656 102.29 19.447 100.977 17.835 100.977C16.054 100.977 14.741 102.615 14.741 105.241C14.741 107.88 16.054 109.531 17.835 109.531C19.499 109.531 20.721 108.127 20.903 105.839H22.892V112.144H24.608V100.132H22.892ZM28.618 102.615H30.022V101.25H26.928V109.167H27.539C28.657 109.167 29.333 109.154 30.165 108.959L29.996 107.568C29.528 107.672 29.099 107.724 28.618 107.737V102.615ZM32.271 102.615H33.831V101.25H30.581V109.167H31.244C32.687 109.167 33.415 109.141 34.312 108.933L34.169 107.529C33.571 107.672 33.025 107.724 32.271 107.737V102.615ZM35.105 100.158V104.305H33.324V105.696H35.105V112.118H36.821V100.158H35.105ZM48.722 100.158H46.993V108.881H48.722V100.158ZM46.109 105.709C44.159 105.085 43.327 103.551 43.327 101.965V100.808H41.585V101.965C41.585 103.564 40.727 105.241 38.738 105.917L39.609 107.282C41 106.801 41.936 105.826 42.482 104.617C43.002 105.735 43.912 106.619 45.238 107.074L46.109 105.709ZM42.469 110.545V108.049H40.753V111.91H49.021V110.545H42.469ZM51.432 101.367V102.758H55.345C55.033 105.41 53.551 107.308 50.769 108.738L51.731 110.051C55.709 108.036 57.074 104.955 57.074 101.367H51.432ZM61.936 104.708H60.259V100.132H58.543V112.092H60.259V106.125H61.936V104.708ZM67.0899 107.048C67.5059 107.126 67.9349 107.165 68.4029 107.165C68.8709 107.165 69.3129 107.126 69.7289 107.048V109.336H67.0899V107.048ZM68.4029 102.082C70.0669 102.082 71.1849 102.758 71.1849 103.954C71.1849 105.137 70.0669 105.826 68.4029 105.826C66.7389 105.826 65.6339 105.137 65.6339 103.954C65.6339 102.758 66.7389 102.082 68.4029 102.082ZM71.4319 109.336V106.411C72.3289 105.852 72.8749 104.994 72.8749 103.954C72.8749 101.991 70.9899 100.73 68.4029 100.73C65.8289 100.73 63.9439 101.991 63.9439 103.954C63.9309 104.994 64.4769 105.852 65.3869 106.411V109.336H62.9949V110.727H73.8369V109.336H71.4319ZM78.2837 108.226H76.7666C76.7708 107.841 76.8026 107.511 76.8618 107.236C76.9253 106.961 77.029 106.713 77.1729 106.493C77.3167 106.269 77.5114 106.04 77.7568 105.808C77.9515 105.626 78.125 105.454 78.2773 105.293C78.4339 105.128 78.5566 104.957 78.6455 104.779C78.7344 104.597 78.7788 104.392 78.7788 104.164C78.7788 103.905 78.7365 103.69 78.6519 103.516C78.5715 103.343 78.4508 103.211 78.29 103.123C78.1335 103.029 77.9367 102.983 77.6997 102.983C77.505 102.983 77.321 103.023 77.1475 103.104C76.974 103.184 76.8343 103.309 76.7285 103.478C76.6227 103.643 76.5656 103.859 76.5571 104.125H74.875C74.8877 103.571 75.0189 103.11 75.2686 102.742C75.5182 102.369 75.8547 102.092 76.2778 101.91C76.701 101.724 77.175 101.631 77.6997 101.631C78.2795 101.631 78.7746 101.728 79.1851 101.923C79.5998 102.113 79.915 102.393 80.1309 102.761C80.3509 103.129 80.4609 103.573 80.4609 104.094C80.4609 104.466 80.389 104.8 80.2451 105.097C80.1012 105.389 79.9108 105.662 79.6738 105.916C79.4368 106.169 79.1808 106.425 78.9058 106.684C78.6646 106.899 78.5016 107.13 78.417 107.375C78.3324 107.621 78.2879 107.904 78.2837 108.226ZM76.6079 110.2C76.6079 109.946 76.6925 109.735 76.8618 109.565C77.0353 109.396 77.2681 109.312 77.5601 109.312C77.8521 109.312 78.0827 109.396 78.252 109.565C78.4255 109.735 78.5122 109.946 78.5122 110.2C78.5122 110.446 78.4255 110.653 78.252 110.822C78.0827 110.992 77.8521 111.076 77.5601 111.076C77.2681 111.076 77.0353 110.992 76.8618 110.822C76.6925 110.653 76.6079 110.446 76.6079 110.2Z" fill="white"/>
<defs>
<filter id="filter0_d_78_105" x="0" y="0" width="111" height="132" filterUnits="userSpaceOnUse" color-interpolation-filters="sRGB">
<feFlood flood-opacity="0" result="BackgroundImageFix"/>
<feColorMatrix in="SourceAlpha" type="matrix" values="0 0 0 0 0 0 0 0 0 0 0 0 0 0 0 0 0 0 127 0" result="hardAlpha"/>
<feOffset/>
<feGaussianBlur stdDeviation="3"/>
<feComposite in2="hardAlpha" operator="out"/>
<feColorMatrix type="matrix" values="0 0 0 0 0 0 0 0 0 0 0 0 0 0 0 0 0 0 0.1 0"/>
<feBlend mode="normal" in2="BackgroundImageFix" result="effect1_dropShadow_78_105"/>
<feBlend mode="normal" in="SourceGraphic" in2="effect1_dropShadow_78_105" result="shape"/>
</filter>
</defs>
</svg>
