<svg width="294" height="33" viewBox="0 0 294 33" fill="none" xmlns="http://www.w3.org/2000/svg">
<circle cx="10" cy="7" r="7" fill="#E5E5E5"/>
<circle cx="280" cy="7" r="7" fill="#E5E5E5"/>
<circle cx="190" cy="7" r="7" fill="#E5E5E5"/>
<circle cx="100" cy="7" r="7" fill="#E5E5E5"/>
<line x1="10" y1="6.5" x2="280" y2="6.5" stroke="#E5E5E5"/>
<circle cx="10" cy="7" r="4" fill="#C7C8C8"/>
<circle cx="280" cy="7" r="4" fill="#C7C8C8"/>
<circle cx="190" cy="7" r="4" fill="#C7C8C8"/>
<circle cx="100" cy="7" r="4" fill="#C7C8C8"/>
<path d="M7.11 21.73V30.79H7.93V21.73H7.11ZM5.16 25.03V25.71H7.35V25.03H5.16ZM2.79 23.03V24.38C2.79 25.99 1.72 27.7 0.42 28.34L0.91 29C2.34 28.26 3.46 26.33 3.46 24.38V23.03H2.79ZM2.96 23.03V24.38C2.96 26.24 4.06 28.1 5.49 28.81L5.98 28.16C4.67 27.54 3.62 25.89 3.62 24.38V23.03H2.96ZM0.75 22.66V23.35H5.67V22.66H0.75ZM13.5192 26.77V28.19H14.3392V26.77H13.5192ZM9.83922 26.29V26.96H18.0092V26.29H9.83922ZM10.7492 27.98V28.66H16.1692V30.75H16.9992V27.98H10.7492ZM13.5192 21.69V22.95H14.3392V21.69H13.5192ZM13.4792 23.06V23.21C13.4792 24.25 12.0792 24.99 10.3292 25.15L10.5892 25.78C12.5592 25.57 14.2092 24.7 14.2092 23.21V23.06H13.4792ZM13.6492 23.06V23.21C13.6492 24.7 15.2892 25.57 17.2692 25.78L17.5292 25.15C15.7792 24.99 14.3792 24.25 14.3792 23.21V23.06H13.6492ZM10.6792 22.62V23.29H17.1792V22.62H10.6792Z" fill="#A5A5A6"/>
<path d="M86.5512 28.92V29.61H94.7412V28.92H86.5512ZM90.1912 26.73V29.15H91.0112V26.73H90.1912ZM90.1712 22.34V23.04C90.1712 24.53 88.4612 25.86 86.8712 26.15L87.2212 26.84C89.0412 26.46 90.8912 24.97 90.8912 23.04V22.34H90.1712ZM90.3212 22.34V23.04C90.3212 24.97 92.1712 26.46 93.9912 26.84L94.3512 26.15C92.7612 25.86 91.0412 24.54 91.0412 23.04V22.34H90.3212ZM96.9404 22.17V22.85H102.76V22.17H96.9404ZM95.9004 25.54V26.22H104.09V25.54H95.9004ZM102.22 22.17V22.79C102.22 23.51 102.22 24.43 101.94 25.72L102.75 25.81C103.03 24.49 103.03 23.53 103.03 22.79V22.17H102.22ZM96.7704 27.57V28.24H102.26V30.81H103.09V27.57H96.7704ZM107.55 22.66V23.39C107.55 24.67 106.62 25.87 105.27 26.35L105.7 27.01C107.21 26.45 108.23 25.04 108.23 23.39V22.66H107.55ZM107.71 22.66V23.39C107.71 24.9 108.68 26.26 110.15 26.8L110.57 26.14C109.26 25.68 108.38 24.55 108.38 23.39V22.66H107.71ZM110.08 24.09V24.78H112.09V24.09H110.08ZM105.53 22.36V23.03H110.36V22.36H105.53ZM106.65 27.64V28.32H111.85V30.78H112.68V27.64H106.65ZM111.85 21.74V27.15H112.68V21.74H111.85Z" fill="#A5A5A6"/>
<path d="M178.851 22.66V23.39C178.851 24.67 177.921 25.87 176.571 26.35L177.001 27.01C178.511 26.45 179.531 25.04 179.531 23.39V22.66H178.851ZM179.011 22.66V23.39C179.011 24.9 179.981 26.26 181.451 26.8L181.871 26.14C180.561 25.68 179.681 24.55 179.681 23.39V22.66H179.011ZM181.381 24.09V24.78H183.391V24.09H181.381ZM176.831 22.36V23.03H181.661V22.36H176.831ZM177.951 27.64V28.32H183.151V30.78H183.981V27.64H177.951ZM183.151 21.74V27.15H183.981V21.74H183.151ZM186.94 22.17V22.85H192.76V22.17H186.94ZM185.9 25.54V26.22H194.09V25.54H185.9ZM192.22 22.17V22.79C192.22 23.51 192.22 24.43 191.94 25.72L192.75 25.81C193.03 24.49 193.03 23.53 193.03 22.79V22.17H192.22ZM186.77 27.57V28.24H192.26V30.81H193.09V27.57H186.77ZM197.55 22.66V23.39C197.55 24.67 196.62 25.87 195.27 26.35L195.7 27.01C197.21 26.45 198.23 25.04 198.23 23.39V22.66H197.55ZM197.71 22.66V23.39C197.71 24.9 198.68 26.26 200.15 26.8L200.57 26.14C199.26 25.68 198.38 24.55 198.38 23.39V22.66H197.71ZM200.08 24.09V24.78H202.09V24.09H200.08ZM195.53 22.36V23.03H200.36V22.36H195.53ZM196.65 27.64V28.32H201.85V30.78H202.68V27.64H196.65ZM201.85 21.74V27.15H202.68V21.74H201.85Z" fill="#A5A5A6"/>
<path d="M269.501 22.16C268.161 22.16 267.201 22.91 267.201 24.02C267.201 25.12 268.161 25.89 269.501 25.89C270.851 25.89 271.811 25.12 271.811 24.02C271.811 22.91 270.851 22.16 269.501 22.16ZM269.501 22.85C270.381 22.85 271.011 23.33 271.011 24.02C271.011 24.72 270.381 25.19 269.501 25.19C268.621 25.19 267.991 24.72 267.991 24.02C267.991 23.33 268.621 22.85 269.501 22.85ZM269.131 26.89V30.5H269.961V26.89H269.131ZM273.131 21.74V30.79H273.951V21.74H273.131ZM266.641 27.34C268.291 27.34 270.511 27.31 272.551 26.94L272.491 26.32C270.501 26.62 268.211 26.64 266.531 26.64L266.641 27.34ZM282.5 21.74V27.21H283.33V21.74H282.5ZM281 24.48V25.17H282.87V24.48H281ZM277.47 27.69V30.66H283.33V27.69H277.47ZM282.52 28.36V29.99H278.28V28.36H282.52ZM275.91 22.68V23.35H281.14V22.68H275.91ZM278.52 23.81C277.3 23.81 276.43 24.47 276.43 25.43C276.43 26.39 277.3 27.03 278.52 27.03C279.74 27.03 280.61 26.39 280.61 25.43C280.61 24.47 279.74 23.81 278.52 23.81ZM278.52 24.45C279.28 24.45 279.82 24.84 279.82 25.43C279.82 26.01 279.28 26.4 278.52 26.4C277.76 26.4 277.22 26.01 277.22 25.43C277.22 24.84 277.76 24.45 278.52 24.45ZM278.11 21.65V23.16H278.94V21.65H278.11ZM287.55 22.66V23.39C287.55 24.67 286.62 25.87 285.27 26.35L285.7 27.01C287.21 26.45 288.23 25.04 288.23 23.39V22.66H287.55ZM287.71 22.66V23.39C287.71 24.9 288.68 26.26 290.15 26.8L290.57 26.14C289.26 25.68 288.38 24.55 288.38 23.39V22.66H287.71ZM290.08 24.09V24.78H292.09V24.09H290.08ZM285.53 22.36V23.03H290.36V22.36H285.53ZM286.65 27.64V28.32H291.85V30.78H292.68V27.64H286.65ZM291.85 21.74V27.15H292.68V21.74H291.85Z" fill="#A5A5A6"/>
</svg>
